<svg width="29" height="26" viewBox="0 0 29 26" fill="none" xmlns="http://www.w3.org/2000/svg">
<path d="M26.2785 23.7142H2.72152C1.21749 23.7142 0.00340271 22.5178 0.00340271 21.0356V4.96422C0.00340271 3.48207 1.21749 2.28564 2.72152 2.28564H26.2785C27.7825 2.28564 28.9966 3.48207 28.9966 4.96422V21.0356C28.9966 22.5178 27.7825 23.7142 26.2785 23.7142ZM2.72152 4.07136C2.21413 4.07136 1.81548 4.46422 1.81548 4.96422V21.0356C1.81548 21.5356 2.21413 21.9285 2.72152 21.9285H26.2785C26.7859 21.9285 27.1845 21.5356 27.1845 21.0356V4.96422C27.1845 4.46422 26.7859 4.07136 26.2785 4.07136H2.72152Z" fill="white"/>
<path d="M14.5 16.4998C13.2316 16.4998 12.0718 15.9998 11.202 15.0891L1.68863 5.12483C1.34434 4.76769 1.36246 4.19626 1.72487 3.85697C2.08729 3.51769 2.66715 3.53554 3.01145 3.89269L12.5248 13.857C13.5577 14.9463 15.4423 14.9463 16.4752 13.857L25.9886 3.91054C26.3329 3.5534 26.9127 3.53554 27.2751 3.87483C27.6376 4.21411 27.6557 4.78554 27.3114 5.14269L17.798 15.107C16.9282 16.0177 15.7685 16.5177 14.5 16.5177V16.4998Z" fill="white"/>
</svg>
