<svg width="32" height="32" viewBox="0 0 32 32" fill="none" xmlns="http://www.w3.org/2000/svg">
<path fill-rule="evenodd" clip-rule="evenodd" d="M6.3107 5.05773C7.93337 3.4444 10.6054 3.73106 11.964 5.54706L13.6467 7.7924C14.7534 9.26973 14.6547 11.3337 13.3414 12.6391L13.024 12.9564C12.9881 13.0896 12.9844 13.2295 13.0134 13.3644C13.0974 13.9084 13.552 15.0604 15.456 16.9537C17.36 18.8471 18.52 19.3004 19.072 19.3857C19.2111 19.4137 19.3548 19.4096 19.492 19.3737L20.036 18.8324C21.204 17.6724 22.996 17.4551 24.4414 18.2404L26.988 19.6271C29.1707 20.8111 29.7214 23.7764 27.9347 25.5537L26.04 27.4364C25.4427 28.0297 24.64 28.5244 23.6614 28.6164C21.248 28.8417 15.6254 28.5537 9.7147 22.6777C4.1987 17.1924 3.14004 12.4084 3.00537 10.0511C2.9387 8.85906 3.50137 7.85106 4.2187 7.13906L6.3107 5.05773ZM10.364 6.74573C9.68804 5.84306 8.42937 5.77106 7.72004 6.4764L5.6267 8.5564C5.1867 8.99373 4.97604 9.4764 5.0027 9.93773C5.10937 11.8111 5.9627 16.1271 11.1254 21.2604C16.5414 26.6444 21.5427 26.8057 23.476 26.6244C23.8707 26.5884 24.2627 26.3831 24.6294 26.0191L26.5227 24.1351C27.2934 23.3697 27.124 21.9751 26.0334 21.3831L23.4867 19.9977C22.7827 19.6164 21.9587 19.7417 21.4467 20.2511L20.84 20.8551L20.1334 20.1457C20.84 20.8551 20.8387 20.8564 20.8374 20.8564L20.836 20.8591L20.832 20.8631L20.8227 20.8711L20.8027 20.8897C20.7464 20.942 20.6858 20.9893 20.6214 21.0311C20.5147 21.1017 20.3734 21.1804 20.196 21.2457C19.836 21.3804 19.3587 21.4524 18.7694 21.3617C17.6134 21.1844 16.0814 20.3964 14.0454 18.3724C12.0107 16.3484 11.216 14.8257 11.0374 13.6711C10.9454 13.0817 11.0187 12.6044 11.1547 12.2444C11.2296 12.0418 11.3367 11.8527 11.472 11.6844L11.5147 11.6377L11.5334 11.6177L11.5414 11.6097L11.5454 11.6057L11.548 11.6031L11.932 11.2217C12.5027 10.6524 12.5827 9.70973 12.0454 8.99106L10.364 6.74573Z" fill="white"/>
</svg>
