<svg width="32" height="32" viewBox="0 0 32 32" fill="none" xmlns="http://www.w3.org/2000/svg">
<path d="M8.57789 3.00001C7.84492 2.99834 7.11884 3.14148 6.44135 3.4212C5.76386 3.70093 5.1483 4.11173 4.63001 4.63001C4.11173 5.1483 3.70093 5.76386 3.4212 6.44135C3.14148 7.11884 2.99834 7.84492 3.00001 8.57789V22.7521C2.99834 23.4851 3.14148 24.2112 3.4212 24.8886C3.70093 25.5661 4.11173 26.1817 4.63001 26.7C5.1483 27.2183 5.76386 27.6291 6.44135 27.9088C7.11884 28.1885 7.84492 28.3317 8.57789 28.33H22.7521C23.4851 28.3317 24.2112 28.1885 24.8886 27.9088C25.5661 27.6291 26.1817 27.2183 26.7 26.7C27.2183 26.1817 27.6291 25.5661 27.9088 24.8886C28.1885 24.2112 28.3317 23.4851 28.33 22.7521V8.57789C28.3317 7.84492 28.1885 7.11884 27.9088 6.44135C27.6291 5.76386 27.2183 5.1483 26.7 4.63001C26.1817 4.11173 25.5661 3.70093 24.8886 3.4212C24.2112 3.14148 23.4851 2.99834 22.7521 3.00001H8.57789ZM15.665 7.38421C16.886 7.38421 18.0951 7.58454 19.2232 7.97376C20.3512 8.36297 21.3762 8.93346 22.2395 9.65263C23.1029 10.3718 23.7877 11.2256 24.2548 12.1652C24.722 13.1048 24.9623 14.1119 24.9622 15.1288C24.9618 17.1824 23.9822 19.1517 22.2386 20.6037C20.4951 22.0557 18.1305 22.8714 15.665 22.8714C14.7744 22.8702 13.8887 22.7626 13.0349 22.5516C11.9275 23.2856 10.6352 23.793 9.25863 24.0344C9.9682 23.3486 10.5176 22.5798 10.884 21.76C9.5084 21.0731 8.3696 20.1014 7.57825 18.9394C6.78691 17.7774 6.36993 16.4647 6.36785 15.1288C6.36768 14.1119 6.60803 13.1048 7.07519 12.1652C7.54234 11.2256 8.22713 10.3718 9.09047 9.65263C9.95381 8.93346 10.9788 8.36297 12.1068 7.97376C13.2349 7.58454 14.444 7.38421 15.665 7.38421Z" stroke="white" stroke-width="2"/>
</svg>
